<?xml version="1.0" encoding="utf-8"?>
<!-- Generator: Adobe Illustrator 28.0.0, SVG Export Plug-In . SVG Version: 6.00 Build 0)  -->
<svg version="1.1" id="Layer_1" xmlns="http://www.w3.org/2000/svg" xmlns:xlink="http://www.w3.org/1999/xlink" x="0px" y="0px"
	 viewBox="0 0 512 512" style="enable-background:new 0 0 512 512;" xml:space="preserve">
<style type="text/css">
	.st0{fill:#7D0D0D;}
</style>
<g>
	<path class="st0" d="M410.5,256.69c0.58-2.93,1.84-11.28-2.4-20.37c-5.37-11.5-15.65-15.85-18-16.77
		c-3.73-2.79-7.46-5.59-11.19-8.38c-19.83-28.3-38.08-36.33-51.21-38.35c-13.25-2.04-19.46,2.33-49.2,0
		c-5.88-0.46-14.82-1.35-27.6-1.2c-9.08,0.11-16.55,0.69-21.6,1.2c12,5.59,24,11.18,36,16.77c-7.52-0.55-18.18-0.29-30,3.6
		c-29.11,9.57-43.13,33.84-46.81,40.73c1.98-1.9,10.96-10.1,24-9.59c5.82,0.23,10.39,2.12,13.2,3.59c-5.73,3.13-20.7,12.32-30,31.15
		c-7.54,15.26-7.6,29.3-7.2,35.94c1.44-8.22,6.75-14.41,13.2-15.58c3.47-0.63,6.51,0.34,8.4,1.2c-4.86,14.11-9.02,33.73-6,56.31
		c3.47,25.88,15.11,46.33,15.98,46.04c0.4-0.13-1.77-4.6-0.38-10.09c1.27-5,4.94-8.65,8.78-11.29c1.08,3.35,2.54,7.4,4.56,11.89
		c2.56,5.68,6,12.05,10.66,18.57c17.07,23.86,34.01,26.54,44.41,44.32c5.83,9.98,10.6,26.4,3.51,53.96
		c3.58-6.31,8.84-17.25,10.36-31.39c6.03-55.81-55.06-79.01-65.48-148.37c-1.75-11.64-7.57-50.43,16.8-80.27
		c26.52-32.47,70.92-32.49,79.21-32.35c5.32,1.06,13,3.29,21,8.39c4.24,2.7,7.6,5.59,10.2,8.18c-1.68,0.78-7.36,3.15-14.4,1.4
		c-8.23-2.04-12.35-8.23-13.2-9.59c-7.82,1.11-28.69,5.2-44.41,22.76c-19.79,22.13-23.32,56.59-8.89,87.34
		c1.68-33.62,22.98-62.61,53.29-72.96C374.99,230.23,407.94,254.72,410.5,256.69"/>
	<path class="st0" d="M292.89,213.56c-28.44,14.55-38.64,34.25-42,41.93c-18.24,41.72,8.29,87.72,13.26,96.35
		c10.61,18.41,17.95,20.49,32.54,47.67c9.39,17.51,15.57,29.3,16.61,45.28c1.63,25.01-10.32,45.18-18.19,55.9
		c28.33-23.26,36.61-44.58,38.69-60.2c8.85-66.48-83.86-110.4-73.3-175.41C264.28,241.77,279.9,224.61,292.89,213.56"/>
	<path class="st0" d="M326.19,261.69c-3.52,7.05-8.03,18.53-7.2,32.35c2.04,34.04,34.28,46.18,42,80.27
		c2.72,12,3.27,30.53-9.6,56.31c0.15-15.64-2.01-38.93-15.6-61.1c-15.08-24.62-33.25-29.93-37.2-49.12
		C296.15,308.58,298.75,289.8,326.19,261.69"/>
	<path class="st0" d="M473.56,118.27c2.07,5.85,41.08,121.54-28.37,198.23c-22.84,25.22-49.94,37.98-69.67,44.63
		c2.72,11.11,8.78,42.16-5.04,77.62c-15.03,38.56-44.02,57.81-53.48,63.55c10.07-2.56,136.58-37.13,181.12-164.05
		C537.54,225.92,481.29,130.84,473.56,118.27"/>
	<path class="st0" d="M438.96,78.22c-12.03-14.71-34.99-38.67-71.14-54.75c-20.7-9.21-73.88-32.87-129.14-7.93
		c-65.28,29.47-78.52,102-79.9,110.33c-6.7,40.45,5.09,73.14,11.41,87.68C169.09,148.78,205.59,89,263.59,60.6
		C320.4,32.79,388.52,39.64,438.96,78.22"/>
	<path class="st0" d="M259.7,428.39c7.56,4.58,12.12,9.83,14.88,13.91c18.99,28.05-2.18,66.62-3.21,68.45
		c-14.49,1.66-35.54,2.41-60.12-2.55c-21.46-4.33-38.57-11.6-50.6-17.84c7.45,0.55,46.12,2.68,75.7-25.45
		C249.94,451.98,256.5,437.52,259.7,428.39"/>
	<path class="st0" d="M224.53,385.13c0.9,3.98,2.89,10.32,7.55,16.83c6.22,8.68,13.88,13.04,17.85,14.95
		c-4.34,8.3-19.93,35.59-53.27,48.77c-39.27,15.53-74.54,0.34-83.02-3.62c-19.69-9.21-32.26-21.17-44.64-33.69
		c-17.95-18.14-29.21-36.22-35.95-48.88c21.84,10.74,68.62,29.79,127.65,22.99C186.84,399.47,208.44,392.19,224.53,385.13"/>
	<path class="st0" d="M190.09,305.56c-2.35,4.84-5.94,13.91-5.77,25.67c0.24,17.15,8.32,29.2,11.55,33.53
		c-12.93,5.93-48.11,19.96-92.6,11.82c-56.01-10.24-87.4-48.41-95.02-58.25c-5.08-19.61-10.34-49.35-7.4-85.38
		c2.53-31.01,10.26-56.12,17.17-73.58c0.1,5.58,2.86,87.79,71.24,128.63C132.65,313.93,176.86,307.88,190.09,305.56"/>
	<path class="st0" d="M186.68,242.64c-2.76,3.34-6.82,9.15-9.18,17.34c-3.43,11.9-1.29,21.98-0.04,26.47
		c-11.08-0.18-59.66-2.18-97.54-40.4c-54.8-55.29-35.28-133.9-34.25-137.79c11.47-16.45,28.52-36.97,52.96-56.19
		C143,17.19,188.5,4.86,214.3,0c-77.91,58.74-107.31,141.56-80.94,194.77C138.48,205.1,151.8,226.62,186.68,242.64"/>
</g>
</svg>
