<?xml version="1.0" encoding="utf-8"?>
<!-- Generator: Adobe Illustrator 28.0.0, SVG Export Plug-In . SVG Version: 6.00 Build 0)  -->
<svg version="1.1" id="Layer_1" xmlns="http://www.w3.org/2000/svg" xmlns:xlink="http://www.w3.org/1999/xlink" x="0px" y="0px"
	 viewBox="0 0 32 32" style="enable-background:new 0 0 32 32;" xml:space="preserve">
<style type="text/css">
	.st0{fill:#ED4040;}
	.st1{fill:#FFFFFF;}
</style>
<g>
	<g>
		<path class="st0" d="M19.6,4.2c-1.2-2-3.8-2.7-5.8-1.5c-0.6,0.4-1.1,0.9-1.5,1.5L0.6,23.4c-1.2,2-0.6,4.6,1.4,5.9
			c0.7,0.4,1.4,0.6,2.2,0.6h23.5c2.4,0,4.3-1.9,4.3-4.3c0-0.8-0.2-1.5-0.6-2.2L19.6,4.2z"/>
		<g>
			<path class="st1" d="M16,20.2c-0.6,0-1.1-0.5-1.1-1.1v-6.7c0-0.6,0.5-1.1,1.1-1.1c0.6,0,1.1,0.5,1.1,1.1v6.7
				C17.1,19.7,16.6,20.2,16,20.2z"/>
			<circle class="st1" cx="16" cy="22.8" r="1.5"/>
		</g>
	</g>
</g>
</svg>
