<?xml version="1.0" encoding="utf-8"?>
<!-- Generator: Adobe Illustrator 28.0.0, SVG Export Plug-In . SVG Version: 6.00 Build 0)  -->
<svg version="1.1" id="Layer_1" xmlns="http://www.w3.org/2000/svg" xmlns:xlink="http://www.w3.org/1999/xlink" x="0px" y="0px"
	 viewBox="0 0 512 512" style="enable-background:new 0 0 512 512;" xml:space="preserve">
<style type="text/css">
	.st0{fill:#5FABDE;}
	.st1{fill:#FFDC85;}
</style>
<g>
	<path class="st0" d="M480.2,88h-41.2c-3.9,0-7,3.1-7,7c0,3.9,3.1,7,7,7l0,0h41.2c7.5,0,13.6,6.1,13.6,13.6v244.2H18.3V115.7
		c0-7.5,6.1-13.6,13.6-13.6h41.2c3.9,0,7-3.1,7-7s-3.1-7-7-7H31.8c-15.2,0-27.6,12.4-27.6,27.6v287.7c0,15.2,12.3,27.6,27.6,27.6
		h171.1v37.5h-7.7c-12,0-21.7,9.7-21.7,21.7V505c0,3.9,3.1,7,7,7h151c3.9,0,7-3.1,7-7v-14.7c0-12-9.7-21.7-21.7-21.7h-7.7V431h171.1
		c15.2,0,27.6-12.4,27.6-27.6V115.7C507.7,100.4,495.4,88.1,480.2,88L480.2,88z M324.5,490.3v7.7h-137v-7.7c0-4.3,3.5-7.7,7.7-7.7
		h121.5C321,482.5,324.5,486,324.5,490.3L324.5,490.3z M295.1,468.5h-78.2V431h78.2V468.5z M480.2,417H31.8
		c-7.5,0-13.6-6.1-13.6-13.6v-29.5h475.5v29.5C493.7,410.9,487.7,417,480.2,417L480.2,417z M273.1,395.4c0,3.9-3.1,7-7,7h-20.2
		c-3.9,0-7-3.1-7-7s3.1-7,7-7h20.2C270,388.4,273.1,391.6,273.1,395.4z"/>
	<path class="st1" d="M420.8,0H91.2C77.3,0,66.1,11.3,66.1,25.1V294c0,13.9,11.3,25.1,25.1,25.2h329.6c13.9,0,25.1-11.3,25.1-25.2
		V25.1C445.9,11.3,434.7,0,420.8,0z M91.2,14h329.6c6.1,0,11.1,5,11.1,11.1v38.3H80.1V25.1C80.1,19,85.1,14,91.2,14z M420.8,305.2
		H91.2c-6.2,0-11.1-5-11.1-11.2V77.4h351.9V294C431.9,300.1,427,305.1,420.8,305.2L420.8,305.2z M122.2,38.7c0-3.9,3.1-7,7-7l0,0
		h0.9c3.9,0,7,3.1,7,7s-3.1,7-7,7h-0.9C125.4,45.7,122.2,42.6,122.2,38.7z M147.3,38.7c0-3.9,3.1-7,7-7h0.9c3.9,0,7,3.1,7,7
		s-3.1,7-7,7h-0.9C150.4,45.7,147.3,42.6,147.3,38.7z M313.1,38.7c0-3.9,3.1-7,7-7h87.8c3.9,0,7,3.1,7,7s-3.1,7-7,7l0,0h-87.8
		C316.2,45.7,313.1,42.6,313.1,38.7C313.1,38.7,313.1,38.7,313.1,38.7z M97.2,38.7c0-3.9,3.1-7,7-7h0.9c3.9,0,7,3.1,7,7s-3.1,7-7,7
		h-0.9C100.3,45.7,97.2,42.6,97.2,38.7z"/>
</g>
<g>
	<path class="st1" d="M303.1,157.8c-6.4-2-13.4,0.3-17.5,5.7l-8.4,11.1l-7.1-58.6c-0.4-3.7-2.3-7.1-5.2-9.4c-2.9-2.4-6.6-3.4-10.3-3
		c-2.2,0.2-4.4,1-6.3,2.3c-1.3-8.2-8.1-14.1-15.6-13.3c-3.8,0.4-7.2,2.5-9.6,5.9c-2.1,3-3,6.7-2.8,10.5c-2.1-0.8-4.4-1.1-6.6-0.9
		c-3.7,0.4-7.1,2.3-9.4,5.2c-1.9,2.3-2.9,5.1-3.1,8c-2.1-0.9-4.5-1.2-6.8-0.9c-3.7,0.4-7.1,2.2-9.4,5.2c-2.4,2.9-3.4,6.6-3,10.3
		l9.3,84.4c1.8,16.3,10.6,30.7,24.2,39.7l2.1,29.8c0.1,2.1,1.9,3.7,3.9,3.7h61c1.1,0,2.2-0.5,2.9-1.3c0.7-0.8,1.1-1.9,1-3.1
		l-3.7-33.6c5.4-5.5,18.3-19.4,19.1-40.1l11.8-37.5c1.3-4.1,0.9-8.4-1.1-12.2C310.6,161.8,307.2,159,303.1,157.8L303.1,157.8z
		 M306.2,175.5l-11.9,38c-0.1,0.3-0.2,0.7-0.2,1.1c-0.6,19.1-13.5,32-17.7,36.2l-0.5,0.5c-0.8,0.8-1.3,2-1.1,3.2l3.4,31.1h-52.9
		l-2-28.2c-0.1-1.3-0.8-2.4-1.9-3.1c-12.5-7.7-20.6-20.4-22.2-35l-9.3-84.4c-0.2-1.6,0.3-3.2,1.3-4.5c1-1.3,2.5-2.1,4.2-2.3
		c1.7-0.2,3.3,0.3,4.6,1.3c1.3,1,2.1,2.5,2.3,4.1l5.4,49c0.2,2.3,2.4,4.2,4.7,3.9c2.1-0.3,3.6-2.2,3.4-4.3l-6.5-59.4
		c-0.2-1.6,0.3-3.3,1.3-4.6c1-1.3,2.5-2.1,4.2-2.3c1.6-0.2,3.3,0.3,4.6,1.3c1.3,1,2.1,2.5,2.3,4.2l6.5,59.4c0.2,2.2,2.3,3.7,4.5,3.5
		c2.2-0.2,3.9-2.1,3.6-4.3l-7.8-71.1c-0.2-2.2,0.2-4.3,1.4-5.9c1-1.5,2.4-2.4,3.9-2.5c3.4-0.4,6.6,2.8,7,7.1l7.8,71.1
		c0.2,2.2,2.3,3.7,4.5,3.5c2.2-0.2,3.9-2.1,3.6-4.3l-6.5-59.4c-0.4-3.4,2.1-6.5,5.5-6.8c1.6-0.2,3.3,0.3,4.6,1.3
		c1.3,1,2.1,2.6,2.3,4.2l8.1,66.7l-2.8,3.8c-3.7,1.2-13.4,5.1-19.3,15c-1.1,1.9-0.5,4.3,1.4,5.4c1.9,1.1,4.3,0.5,5.4-1.4
		c5.5-9.2,15.6-11.8,15.7-11.8c0.9-0.2,1.7-0.7,2.3-1.5l18.8-25c2.1-2.7,5.6-3.9,8.9-2.9c2.1,0.6,3.8,2.1,4.8,4
		C306.6,171.2,306.8,173.4,306.2,175.5L306.2,175.5z"/>
	<circle class="st1" cx="334.2" cy="129.4" r="3.9"/>
	<path class="st1" d="M282.6,119.2c0.2,0,17.1-2.7,35.2,5c2.1,0.9,4.5-0.2,5.3-2.4c0.7-1.9-0.3-4.1-2.2-4.9
		c-20.2-8.6-38.8-5.7-39.6-5.6c-2.1,0.4-3.6,2.4-3.2,4.5C278.4,118.1,280.5,119.5,282.6,119.2L282.6,119.2z M290.2,127.2
		c-2.2,0.2-3.8,2-3.6,4.2c0.2,2.2,2,3.8,4.2,3.6c0.2,0,21.3-1.2,37.7,14c1.7,1.6,4.4,1.3,5.8-0.5c1.2-1.6,1-3.9-0.5-5.3
		C314.9,125.6,291.2,127.1,290.2,127.2L290.2,127.2z M171.8,165.2c1.8-1.1,2.4-3.5,1.3-5.4c-1.1-1.9-3.6-2.4-5.4-1.3
		c-0.5,0.3-12.7,7.9-20,22.8c-0.9,1.8-0.2,4,1.5,5.1c2,1.2,4.6,0.4,5.6-1.6C161,171.9,171.7,165.2,171.8,165.2z M169,179.5
		c-0.4,0.4-9.8,9.8-13.6,23.3c-0.6,2,0.6,4.2,2.6,4.8c2.1,0.7,4.4-0.6,5-2.7c3.2-11.4,11.4-19.7,11.6-19.8c1.5-1.5,1.6-4,0-5.6
		C173.1,178,170.6,178,169,179.5L169,179.5z"/>
</g>
</svg>
