<?xml version="1.0" encoding="utf-8"?>
<!-- Generator: Adobe Illustrator 28.0.0, SVG Export Plug-In . SVG Version: 6.00 Build 0)  -->
<svg version="1.1" id="Layer_1" xmlns="http://www.w3.org/2000/svg" xmlns:xlink="http://www.w3.org/1999/xlink" x="0px" y="0px"
	 viewBox="0 0 512 512" style="enable-background:new 0 0 512 512;" xml:space="preserve">
<style type="text/css">
	.st0{fill:#5FABDE;}
	.st1{fill:#FFDC85;}
</style>
<path class="st0" d="M439.2,142.8H72.8c-4.5,0-8.1,3.6-8.1,8.1V388c0,4.5,3.6,8.1,8.1,8.1h366.5c4.5,0,8.1-3.6,8.1-8.1V150.9
	C447.3,146.4,443.7,142.8,439.2,142.8z M431.2,159v221H80.8V159H431.2z"/>
<path class="st0" d="M503.9,423.1h-19.6c3.9-6.1,6.1-13.2,6.1-20.5V138.5c0-20.8-16.9-37.7-37.7-37.7H59.3
	c-20.8,0-37.7,16.9-37.7,37.7v264.1c0,7.3,2.1,14.4,6.1,20.5H8.1c-4.5,0-8.1,3.6-8.1,8.1c0,40.1,32.6,72.8,72.8,72.8h366.5
	c40.1,0,72.8-32.6,72.8-72.8C512,426.7,508.4,423.1,503.9,423.1z M207.5,460.8h97c4.5,0,8.1-3.6,8.1-8.1v-13.5h182.7
	c-4,27.4-28,48.5-56,48.5H72.8c-28,0-52-21.1-56-48.5h182.7v13.5C199.4,457.2,203,460.8,207.5,460.8z M459.4,423.1H304.5
	c-4.5,0-8.1,3.6-8.1,8.1v13.5h-80.8v-13.5c0-4.5-3.6-8.1-8.1-8.1H52.6c-8.8-2.9-14.9-11.2-14.9-20.5V138.5
	c0-11.9,9.7-21.6,21.6-21.6h393.4c11.9,0,21.6,9.7,21.6,21.6v264.1C474.3,411.8,468.2,420.2,459.4,423.1z"/>
<path class="st1" d="M223.7,288.3h-53.9c-4.5,0-8.1,3.6-8.1,8.1c0,4.5,3.6,8.1,8.1,8.1h53.9c4.5,0,8.1-3.6,8.1-8.1
	C231.7,292,228.1,288.3,223.7,288.3z"/>
<path class="st1" d="M223.7,261.4h-53.9c-4.5,0-8.1,3.6-8.1,8.1s3.6,8.1,8.1,8.1h53.9c4.5,0,8.1-3.6,8.1-8.1
	S228.1,261.4,223.7,261.4z"/>
<path class="st1" d="M331.5,207.5h-53.9c-4.5,0-8.1,3.6-8.1,8.1c0,4.5,3.6,8.1,8.1,8.1h53.9c4.5,0,8.1-3.6,8.1-8.1
	C339.5,211.1,335.9,207.5,331.5,207.5z"/>
<path class="st1" d="M331.5,261.4h-53.9c-4.5,0-8.1,3.6-8.1,8.1s3.6,8.1,8.1,8.1h53.9c4.5,0,8.1-3.6,8.1-8.1
	S335.9,261.4,331.5,261.4z"/>
<path class="st1" d="M331.5,234.4h-53.9c-4.5,0-8.1,3.6-8.1,8.1c0,4.5,3.6,8.1,8.1,8.1h53.9c4.5,0,8.1-3.6,8.1-8.1
	C339.5,238.1,335.9,234.4,331.5,234.4z"/>
<path class="st1" d="M331.5,288.3h-53.9c-4.5,0-8.1,3.6-8.1,8.1c0,4.5,3.6,8.1,8.1,8.1h53.9c4.5,0,8.1-3.6,8.1-8.1
	C339.5,292,335.9,288.3,331.5,288.3z"/>
<path class="st1" d="M223.7,207.5h-53.9c-4.5,0-8.1,3.6-8.1,8.1c0,4.5,3.6,8.1,8.1,8.1h53.9c4.5,0,8.1-3.6,8.1-8.1
	C231.7,211.1,228.1,207.5,223.7,207.5z"/>
<path class="st1" d="M223.7,234.4h-53.9c-4.5,0-8.1,3.6-8.1,8.1c0,4.5,3.6,8.1,8.1,8.1h53.9c4.5,0,8.1-3.6,8.1-8.1
	C231.7,238.1,228.1,234.4,223.7,234.4z"/>
<path class="st1" d="M471.6,88.9c16.3,0,29.6-13.3,29.6-29.6s-13.3-29.6-29.6-29.6s-29.6,13.3-29.6,29.6S455.2,88.9,471.6,88.9z
	 M458.1,59.3c0-7.4,6-13.5,13.5-13.5s13.5,6,13.5,13.5s-6,13.5-13.5,13.5S458.1,66.7,458.1,59.3z"/>
<path class="st1" d="M142.8,358.4h215.6c4.5,0,8.1-3.6,8.1-8.1V188.6c0-4.5-3.6-8.1-8.1-8.1h-73.7c-13.5,0-26.2,6.6-34.1,17.4
	c-7.9-10.8-20.6-17.4-34.1-17.4h-73.7c-4.5,0-8.1,3.6-8.1,8.1v161.7C134.7,354.8,138.4,358.4,142.8,358.4z M241.1,342.2h-90.2v-16.2
	h67.4C228.6,326.1,237.8,332.7,241.1,342.2z M242.5,318c-7-5.3-15.4-8.1-24.3-8.1h-67.4V196.7l65.6,0c14.4,0,26,11.7,26,26V318z
	 M258.7,318v-95.2c0-14.4,11.7-26,26-26h65.6v113.2h-67.4C274.1,309.9,265.7,312.7,258.7,318z M282.9,326.1h67.4v16.2h-90.2
	C263.5,332.7,272.6,326.1,282.9,326.1z"/>
<path class="st1" d="M126.7,88.9c22.3,0,40.4-18.1,40.4-40.4S148.9,8.1,126.7,8.1S86.2,26.2,86.2,48.5S104.4,88.9,126.7,88.9z
	 M102.4,48.5c0-13.4,10.9-24.3,24.3-24.3s24.3,10.9,24.3,24.3S140,72.8,126.7,72.8S102.4,61.9,102.4,48.5z"/>
<circle class="st1" cx="420.4" cy="40.4" r="10.8"/>
<circle class="st1" cx="334.1" cy="72.8" r="10.8"/>
<circle class="st1" cx="215.6" cy="29.6" r="10.8"/>
<circle class="st1" cx="48.5" cy="67.4" r="10.8"/>
</svg>
