<?xml version="1.0" encoding="utf-8"?>
<!-- Generator: Adobe Illustrator 28.0.0, SVG Export Plug-In . SVG Version: 6.00 Build 0)  -->
<svg version="1.1" id="Layer_1" xmlns="http://www.w3.org/2000/svg" xmlns:xlink="http://www.w3.org/1999/xlink" x="0px" y="0px"
	 viewBox="0 0 512 512" style="enable-background:new 0 0 512 512;" xml:space="preserve">
<style type="text/css">
	.st0{fill:#5FABDE;}
	.st1{fill:#FFDC85;}
</style>
<g>
	<polygon class="st0" points="34.8,94.2 10.4,69.6 0,80.1 20.1,100.4 20.5,153.6 45.2,178.5 55.7,168 35.2,147.4 	"/>
	<polygon class="st0" points="350.9,87 361.3,97.5 371.7,87 361.3,76.5 	"/>
	<polygon class="st0" points="387.2,123.7 397.6,113.2 387.2,102.7 376.8,113.2 	"/>
	<polygon class="st0" points="369.3,36.8 411.1,36.6 437.1,10.5 426.7,0 405,21.8 363.2,22 320,65.5 330.4,76 	"/>
	<path class="st0" d="M170.4,216l0.3-0.3c4.9-4.9,7.5-11.4,7.5-18.3c0,0,0-0.1,0-0.1c0.1,0,0.1,0,0.2,0c6.6,0,13.1-2.5,18.1-7.5
		l0.4-0.4c4.8-4.9,7.5-11.3,7.5-18.2c0-0.1,0-0.1,0-0.2c6.6,0,13.2-2.5,18.3-7.5c4.8-4.9,7.5-11.3,7.5-18.2s-2.7-13.4-7.5-18.2
		l-13.7-13.8c4-6,6.1-13,6.1-20.4c0-9.9-3.8-19.2-10.7-26.2L160,21.9L98.2,22L77.7,1.3L67.3,11.8l24.8,25l61.8-0.1l40,40.3
		c4.2,4.2,6.4,9.8,6.4,15.7c0,3.4-0.8,6.6-2.2,9.6l-30.3-30.5l-10.4,10.5l54.8,55.2c2,2.1,3.2,4.8,3.2,7.7s-1.1,5.7-3.2,7.7
		c-4.2,4.3-11.1,4.3-15.3,0L168,123.8l-10.4,10.5l28.9,29.1c2,2.1,3.2,4.8,3.2,7.7c0,2.9-1.1,5.7-3.2,7.7l-0.4,0.4
		c-4.2,4.2-11.1,4.3-15.3,0.1l-29.1-29l-10.3,10.6l29,28.8c2.1,2.1,3.2,4.8,3.2,7.7c0,2.9-1.1,5.7-3.2,7.8l-0.3,0.3
		c-4.2,4.3-11.1,4.3-15.3,0l-28.8-29L105.5,187l18.4,18.5c2,2.1,3.2,4.8,3.2,7.7c0,2.9-1.1,5.7-3.2,7.7l-0.1,0.1
		c-4.2,4.3-11.1,4.3-15.3,0L67,179.4l-10.4,10.5L98,231.6c5,5,11.5,7.5,18.1,7.5c6.5,0,13.1-2.5,18.1-7.5l0.1-0.1
		c3-3.1,5.2-6.7,6.4-10.8C150.3,225.7,162.4,224.1,170.4,216z"/>
	<polygon class="st0" points="413.3,150 423.7,139.5 413.3,129 402.9,139.5 	"/>
	<polygon class="st0" points="131.4,139.9 121,129.4 110.6,139.9 121,150.4 	"/>
	<polygon class="st0" points="94.9,155.4 84.5,165.9 94.9,176.3 105.3,165.8 	"/>
	<polygon class="st1" points="160.4,436.8 145.6,436.8 145.6,461.9 182.4,498.3 182.4,512 197.1,512 197.1,492.1 160.4,455.7 	"/>
	<path class="st0" d="M501.6,60.7l-24.9,25.1v103.2c0,3-1.2,5.9-3.3,8c-2.1,2.1-5,3.3-8,3.3c-6.1-0.1-11.1-5.1-11.1-11.3l-0.2-48.8
		l-95.2,95.9c-4.3,4.3-11.2,4.3-15.6,0c-2.1-2.1-3.2-4.9-3.2-7.8c0-2.8,1-5.4,2.8-7.4l60.1-60.5L392.5,150l-59.6,60.1
		c-0.2,0.2-0.4,0.4-0.6,0.7l-20.4,20.6c-4.3,4.3-11.2,4.3-15.5,0l-0.2-0.2c-2.1-2.1-3.2-4.9-3.2-7.8c0-3,1.1-5.7,3.2-7.8l80.7-81.3
		l-10.4-10.5l-70.3,70.9c-4.3,4.3-11.2,4.3-15.5,0c-2.1-2.1-3.2-4.9-3.2-7.8c0-3,1.1-5.7,3.2-7.8l20.7-20.8c0,0,0.1-0.1,0.1-0.1
		l49.5-49.9l-10.4-10.5l-49.6,50c-4.3,4.2-11.2,4.2-15.4-0.1l-0.2-0.2c-2.1-2.1-3.2-4.9-3.2-7.8c0-3,1.1-5.7,3.2-7.8l44.4-44.7
		l-10.4-10.5l-44.4,44.7c-4.9,4.9-7.5,11.4-7.5,18.3c0,6.9,2.7,13.4,7.5,18.3l0.2,0.2c2.8,2.8,6,4.8,9.5,6.1l-4.3,4.4
		c-4.9,4.9-7.5,11.4-7.5,18.3s2.7,13.4,7.5,18.3c3.1,3.1,6.9,5.3,10.8,6.5c-1.8,3.6-2.8,7.6-2.8,11.8c0,6.9,2.7,13.4,7.5,18.3
		l0.2,0.2c10,10.1,26.3,10.1,36.3,0l4.6-4.7c1.3,3.6,3.3,6.8,6.1,9.6c5,5,11.6,7.6,18.2,7.6c6.6,0,13.2-2.5,18.2-7.6l70.2-70.8
		l0.1,13.1c0,14.3,11.6,26,25.7,26.1c0.1,0,0.2,0,0.2,0c6.9,0,13.4-2.7,18.3-7.6c4.9-4.9,7.7-11.5,7.7-18.6V92L512,71.2L501.6,60.7z
		"/>
	<polygon class="st0" points="157.7,113.4 147.3,102.9 136.9,113.4 147.3,123.9 	"/>
	<path class="st1" d="M296.5,347.6C296.5,347.6,296.5,347.6,296.5,347.6c-7.2,0-13.7,3-18.4,7.8c-4.7-4.8-11.2-7.8-18.4-7.8
		c-2.3,0-4.4,0.3-6.5,0.9l17-80.6c1.4-6.8,0.2-13.8-3.6-19.6c-3.8-5.8-9.6-9.9-16.3-11.3c-14-3-27.7,6-30.7,20.1l-15,71.4L189.4,257
		c-3-14.1-16.7-23.1-30.7-20.1c-6.8,1.4-12.6,5.5-16.3,11.3c-3.8,5.8-5,12.8-3.6,19.6l21.2,99.4c-8.6,5.5-14.4,15.1-14.4,26.1V422
		h14.7v-28.6c0-8.8,7.1-16,15.9-16h56.6c-3.3,12.7-14.7,22.1-28.3,22.1h-21.9v14.8c12.2,0,22.1,10,22.1,22.3v15.1h14.7v-15.1
		c0-8.6-2.9-16.5-7.8-22.8c8.9-1.5,16.9-5.6,23.1-11.6c2.9,11.2,13,19.4,24.9,19.4c7.2,0,13.7-3,18.4-7.8c4.7,4.8,11.2,7.8,18.4,7.8
		c3.9,0,7.7-0.9,11-2.5v37.1l-29.1,36.4V512h14.7v-14.2l29.1-36.4v-65.8V392v-18.5c0-6.9-2.7-13.5-7.5-18.4
		C309.8,350.3,303.4,347.6,296.5,347.6z M174.1,362.6l-20.9-97.9c-0.6-2.9-0.1-5.9,1.6-8.4c1.6-2.5,4.1-4.2,7-4.9
		c6-1.3,11.9,2.6,13.2,8.7l21.8,102.5h-20.5C175.5,362.5,174.8,362.6,174.1,362.6z M212.5,362.5L234,260.1c1.3-6.1,7.2-9.9,13.2-8.6
		c2.9,0.6,5.4,2.4,7,4.9c1.6,2.5,2.2,5.5,1.6,8.4l-20.6,97.8H212.5z M270.7,395.6c0,6.1-4.9,11.1-11,11.1s-11-5-11-11.1v-22.1
		c0-6.1,4.9-11.1,11-11.1s11,5,11,11.1V395.6z M307.5,395.6c0,6.1-4.9,11.1-11,11.1c-6.1,0-11-5-11-11.1v-22.1
		c0-6.1,4.9-11.1,11-11.1c2.9,0,5.7,1.2,7.8,3.3c2.1,2.1,3.2,4.9,3.2,7.9V392V395.6z"/>
</g>
</svg>
