<?xml version="1.0" encoding="utf-8"?>
<!-- Generator: Adobe Illustrator 28.0.0, SVG Export Plug-In . SVG Version: 6.00 Build 0)  -->
<svg version="1.1" id="Layer_1" xmlns="http://www.w3.org/2000/svg" xmlns:xlink="http://www.w3.org/1999/xlink" x="0px" y="0px"
	 viewBox="0 0 512 512" style="enable-background:new 0 0 512 512;" xml:space="preserve">
<style type="text/css">
	.st0{fill:#FFDC85;}
	.st1{fill:#5FABDE;}
</style>
<g>
	<path class="st0" d="M380.4,99.5c-24-44.1-71.6-72-124.2-72.8h-0.3c-52.6,0.8-100.3,28.7-124.3,72.9C118,124.7,112.3,153,115,181.4
		c2.3,24.6,10.8,50.8,25.3,77.9c25.9,48.3,66.7,92.4,102.8,129.9l0.2,0.2c1.5,1.5,6.2,6,12.5,6h0.3c6.3,0,11-4.5,12.6-6l0.2-0.2
		c36.2-37.5,76.9-81.6,102.8-129.9c14.5-27,23-53.2,25.3-77.9C399.7,153,394,124.7,380.4,99.5L380.4,99.5z M357.6,251.8
		c-24.8,46.4-64.4,89.1-99.5,125.5l-2.2,2.2l-2.2-2.2c-35.1-36.4-74.6-79.1-99.5-125.5c-28.9-54-31.8-101.3-8.7-144.6
		c21.2-39,63.5-63.7,110.3-64.5l0,0l0,0c46.8,0.8,89.1,25.4,110.2,64.4C389.4,150.5,386.5,197.8,357.6,251.8z"/>
</g>
<g>
	<path class="st0" d="M256,94.5c-41.1,0-74.5,33-74.5,73.6c0,40.6,33.4,73.6,74.5,73.6c41.1,0,74.5-33,74.5-73.6
		C330.5,127.5,297.1,94.5,256,94.5z M256,225.6c-32.2,0-58.5-25.8-58.5-57.6c0-31.7,26.2-57.6,58.5-57.6c32.2,0,58.5,25.8,58.5,57.6
		C314.5,199.8,288.2,225.6,256,225.6z"/>
</g>
<g>
	<path class="st1" d="M432.5,310.1h-73.7c-4.4,0-8,3.6-8,8c0,4.4,3.6,8,8,8h69.5h2l0.8,1.9l13.5,33.7l1.2,2.9l-3,1l-233.1,78.8
		l-2.1,0.7l-1.3-1.8l-81.6-112.5l-3.5-4.8h5.9h26.1c4.4,0,8-3.6,8-8c0-4.4-3.6-8-8-8H69.5c-5.5,0-10.3,3.5-12,8.6L3.7,477.2
		c-1.1,3.2-0.9,6.7,0.6,9.7s4.1,5.3,7.3,6.4c1.3,0.4,2.7,0.7,4.1,0.7h480.6c3.4,0,6.6-1.3,9-3.7c2.4-2.4,3.7-5.6,3.7-9
		c0-1.6-0.3-3.2-0.9-4.7L444.3,318C442.4,313.2,437.8,310.1,432.5,310.1 M110.3,478h-0.5H24.5h-4.2l1.3-4l49.5-145.9l0.7-2H74h26
		h1.5l0.9,1.2l86.9,119.9l2.4,3.3l-3.9,1.3l-77,26L110.3,478z M392.2,478H178.5h-18.2l17.3-5.8l171.6-58l2.1-0.7l1.3,1.8l42.1,58
		l3.5,4.8H392.2z M487,478l-67.6,0h-1.5l-0.9-1.2l-47.4-65.4l-2.4-3.3l3.9-1.3l78.1-26.4l2.7-0.9l1.1,2.6l36.9,91.8l1.7,4.1L487,478
		z"/>
</g>
</svg>
