<?xml version="1.0" encoding="utf-8"?>
<!-- Generator: Adobe Illustrator 28.0.0, SVG Export Plug-In . SVG Version: 6.00 Build 0)  -->
<svg version="1.1" id="Layer_1" xmlns="http://www.w3.org/2000/svg" xmlns:xlink="http://www.w3.org/1999/xlink" x="0px" y="0px"
	 viewBox="0 0 512 512" style="enable-background:new 0 0 512 512;" xml:space="preserve">
<style type="text/css">
	.st0{fill:#FFB555;}
	.st1{fill:#FFFFFF;}
</style>
<g>
	<path class="st0" d="M512,26.1H85.1C38.1,26.1,0,64.2,0,111.2v173.1c0,47,38.1,85.1,85.1,85.1h22.6V503c0,6.6,8.3,9.6,12.5,4.5
		l115.1-138.1h191.5c47,0,85.1-38.1,85.1-85.1V26.1H512z"/>
	<path class="st1" d="M412.7,216.2H100.6c-11.8,0-21.3,9.5-21.3,21.3s9.5,21.3,21.3,21.3h312.1c11.8,0,21.3-9.5,21.3-21.3
		C434,225.7,424.5,216.2,412.7,216.2z"/>
	<path class="st1" d="M100.6,173.6h241.2c11.8,0,21.3-9.5,21.3-21.3s-9.5-21.3-21.3-21.3H100.6c-11.8,0-21.3,9.5-21.3,21.3
		C79.4,164.1,88.9,173.6,100.6,173.6z"/>
</g>
</svg>
